<?xml version="1.0" encoding="iso-8859-1"?>
<!-- Generator: Adobe Illustrator 19.0.0, SVG Export Plug-In . SVG Version: 6.00 Build 0)  -->
<svg version="1.1" id="Capa_1" xmlns="http://www.w3.org/2000/svg" xmlns:xlink="http://www.w3.org/1999/xlink" x="0px" y="0px"
	 viewBox="0 0 511.999 511.999" style="enable-background:new 0 0 511.999 511.999;" xml:space="preserve">
<circle style="fill:#3E3E42;" cx="255.999" cy="255.996" r="255.996"/>
<path style="fill:#2D2E30;" d="M261.448,68.222L261.448,68.222c-0.001,0-0.001,0-0.002,0h-0.001
	c-81.889,0-124.407,52.076-138.462,73.559l-4.077-4.077c-19.056,0.813-33.88,16.552-33.896,35.353c0,0.012-0.001,0.024-0.001,0.036
	v171.484c0,0.033,0.003,0.065,0.003,0.098c0.023,8.86,3.323,16.971,8.75,23.184l-0.071,0.071L237.06,511.3
	c6.256,0.458,12.572,0.699,18.944,0.699c139.989,0,253.714-112.367,255.947-251.823L356.696,104.922l-0.341,0.341
	C333.256,85.267,301.75,68.223,261.448,68.222z"/>
<path style="fill:#ACACB2;" d="M118.17,346.681c1.793-0.916,3.8-1.4,5.805-1.4c4.805,0,9.154,2.654,11.344,6.915
	c0.449,0.869,3.984,7.531,11.083,16.475c5.871-6.323,9.465-14.788,9.465-24.096v-171.48c0-10.541-4.608-20.001-11.915-26.491
	c-5.764,7.693-8.539,13.016-8.585,13.106c-2.183,4.323-6.55,7.008-11.393,7.008c-1.979,0-3.963-0.472-5.739-1.368
	c-6.277-3.166-8.81-10.851-5.643-17.135c0.359-0.71,2.405-4.662,6.312-10.511c-18.855,0.804-33.897,16.337-33.897,35.391v171.48
	c0,19.568,15.862,35.43,35.43,35.43l0,0c0.849,0,1.688-0.041,2.523-0.099c-6.543-8.821-9.865-15.14-10.334-16.056
	C109.423,357.59,111.908,349.891,118.17,346.681z"/>
<g>
	<path style="fill:#E1E1E3;" d="M316.541,101.873c-1.16-0.715-2.444-1.056-3.714-1.056c-2.375,0-4.697,1.195-6.037,3.367
		c-2.054,3.331-1.018,7.697,2.311,9.751c41.92,25.86,57.751,54.608,62.611,65.767c1.683,3.867,4.341,7.252,7.687,9.789l4.263,3.235
		l1.318-8.476c0.563-3.61,0.355-7.281-0.536-10.789C378.771,160.689,361.189,129.416,316.541,101.873z"/>
	<path style="fill:#E1E1E3;" d="M263.469,429.605c0.001,0,0.001,0-0.002,0c-93.467,0-131.593-71.728-133.185-74.806
		c-1.257-2.445-3.736-3.849-6.308-3.849c-1.087,0-2.19,0.25-3.225,0.78c-3.482,1.784-4.86,6.054-3.078,9.537
		c1.725,3.369,43.418,82.512,145.799,82.511c77.594-0.002,123.06-61.454,139.047-87.943c1.63-2.776,39.728-68.878,17.579-146.519
		c-1.37-4.807-4.036-9.143-7.706-12.54l-3.168-2.409l-0.728,4.684c-0.515,3.303-0.408,6.652,0.318,9.955
		c3.507,15.979,9.649,56.081-3.389,101.365c-6.47,23.198-14.927,37.943-15.082,38.209
		C375.639,372.942,333.845,429.604,263.469,429.605C263.468,429.605,263.469,429.605,263.469,429.605"/>
	<path style="fill:#E1E1E3;" d="M120.789,160.288c1.023,0.516,2.113,0.76,3.186,0.76c2.589,0,5.084-1.424,6.333-3.895
		c0.376-0.747,38.784-74.761,131.14-74.759c69.276,0.001,110.438,56.636,124.92,80.987c3.883,6.528,5.381,14.248,4.213,21.74
		l-1.691,10.878c-0.892,5.737-0.709,11.542,0.545,17.258c3.435,15.655,9.691,56.936-6.405,102.007
		c-1.315,3.685,0.606,7.74,4.29,9.056c0.789,0.281,1.591,0.414,2.383,0.414c2.91,0,5.638-1.806,6.673-4.704
		c17.33-48.529,10.598-92.962,6.901-109.81c-0.877-3.994-1.005-8.046-0.382-12.043l1.691-10.878
		c1.67-10.741-0.473-21.808-6.04-31.162c-15.719-26.433-60.548-87.913-137.099-87.915h-0.001h-0.001h-0.001
		c-100.972,0-142.09,79.179-143.792,82.549C115.892,154.264,117.296,158.527,120.789,160.288z"/>
</g>
<path style="fill:#8A8A91;" d="M85.008,344.577c0.001,10.158,4.283,19.31,11.133,25.77V147.322
	c-6.849,6.46-11.132,15.612-11.133,25.771V344.577z"/>
<circle style="fill:#3E3E42;" cx="117.962" cy="214.549" r="17.361"/>
<g>
	<path style="fill:#E1E1E3;" d="M117.958,242.537c-15.434,0-27.99-12.557-27.99-27.99s12.557-27.99,27.99-27.99
		s27.989,12.557,27.989,27.99S133.39,242.537,117.958,242.537z M117.958,192.227c-12.308,0-22.321,10.012-22.321,22.321
		s10.012,22.321,22.321,22.321c12.307,0,22.32-10.012,22.32-22.321S130.265,192.227,117.958,192.227z"/>
	<path style="fill:#E1E1E3;" d="M126.86,329.694h-15.68c-3.882,0-7.04-3.158-7.04-7.04v-59.612c0-3.882,3.158-7.04,7.04-7.04h15.68
		c3.882,0,7.04,3.158,7.04,7.04v59.612C133.901,326.536,130.742,329.694,126.86,329.694z M111.18,261.669
		c-0.757,0-1.372,0.615-1.372,1.372v59.612c0,0.757,0.615,1.372,1.372,1.372h15.68c0.757,0,1.372-0.615,1.372-1.372v-59.612
		c0-0.757-0.615-1.372-1.372-1.372H111.18z"/>
</g>
<g>
</g>
<g>
</g>
<g>
</g>
<g>
</g>
<g>
</g>
<g>
</g>
<g>
</g>
<g>
</g>
<g>
</g>
<g>
</g>
<g>
</g>
<g>
</g>
<g>
</g>
<g>
</g>
<g>
</g>
</svg>
