<svg id="Capa_1" enable-background="new 0 0 512 512" height="512" viewBox="0 0 512 512" width="512" xmlns="http://www.w3.org/2000/svg"><g><g fill="#dd5790"><path d="m334.842 511.996c-13.829 0-25.304-10.932-25.851-24.873-.562-14.288 10.565-26.325 24.853-26.887 39.121-1.537 78.784-4.293 118.188-8.207 3.914-39.404 6.67-79.067 8.207-118.188.562-14.287 12.588-25.407 26.887-24.853 14.287.561 25.414 12.598 24.853 26.886-1.855 47.198-5.437 95.159-10.647 142.549-1.325 12.059-10.846 21.58-22.905 22.905-47.39 5.21-95.35 8.792-142.549 10.647-.348.014-.692.021-1.036.021z"/><path d="m25.91 203.029c-.344 0-.688-.007-1.035-.021-14.287-.561-25.414-12.598-24.853-26.886 1.856-47.198 5.438-95.159 10.647-142.549 1.325-12.059 10.846-21.58 22.905-22.905 47.39-5.21 95.35-8.792 142.549-10.647 14.272-.574 26.325 10.565 26.886 24.853.562 14.288-10.565 26.325-24.853 26.887-39.121 1.537-78.784 4.293-118.188 8.207-3.914 39.404-6.67 79.067-8.207 118.188-.547 13.939-12.022 24.873-25.851 24.873z"/><path d="m177.158 511.996c-.344 0-.688-.007-1.035-.021-47.198-1.855-95.159-5.437-142.549-10.647-12.059-1.325-21.58-10.846-22.905-22.905-5.21-47.39-8.792-95.35-10.647-142.549-.562-14.288 10.565-26.325 24.853-26.886 14.286-.571 26.325 10.565 26.887 24.853 1.537 39.121 4.293 78.784 8.207 118.188 39.404 3.914 79.067 6.67 118.188 8.207 14.287.562 25.414 12.599 24.853 26.887-.548 13.94-12.023 24.873-25.852 24.873z"/><path d="m486.09 203.029c-13.829 0-25.304-10.932-25.852-24.873-1.537-39.121-4.293-78.784-8.207-118.188-39.404-3.914-79.067-6.67-118.188-8.207-14.287-.562-25.414-12.599-24.853-26.887.561-14.287 12.599-25.406 26.886-24.853 47.198 1.855 95.159 5.437 142.549 10.647 12.059 1.325 21.58 10.846 22.905 22.905 5.21 47.39 8.792 95.35 10.647 142.549.562 14.288-10.565 26.325-24.853 26.886-.346.014-.691.021-1.034.021z"/></g><g fill="#da387d"><path d="m501.945 314.371c-7.675 4.399-13.001 12.743-13.372 22.499-1.545 40.641-4.296 81.837-8.211 122.776-39.404 4.059-79.066 6.923-118.192 8.52-14.289.587-25.414 13.093-24.848 27.928.216 5.903 2.256 11.291 5.532 15.597-2.328.103-4.656.196-6.974.288-.35.01-.69.021-1.04.021-13.825 0-25.301-10.93-25.847-24.879-.567-14.278 10.559-26.321 24.848-26.877 39.126-1.545 78.788-4.296 118.192-8.21 3.915-39.404 6.665-79.066 8.211-118.192.556-14.289 12.589-25.404 26.877-24.848 5.593.216 10.713 2.194 14.824 5.377z"/><path d="m28.353 173.021c-.391 10.508 5.068 19.841 13.361 24.6-4.389 3.4-9.879 5.408-15.803 5.408-.34 0-.69-.01-1.03-.021-14.289-.556-25.414-12.599-24.858-26.888 1.854-47.19 5.439-95.155 10.652-142.543 1.319-12.063 10.837-21.582 22.901-22.901 4.131-.453 8.262-.896 12.393-1.319-3.801 4.152-6.325 9.56-6.964 15.586-5.213 49.222-8.798 99.052-10.652 148.078z"/><path d="m39.005 487.06c.639 6.027 3.163 11.435 6.964 15.586-4.131-.422-8.262-.865-12.393-1.318-12.063-1.319-21.582-10.837-22.901-22.901-5.213-47.388-8.798-95.353-10.652-142.545-.556-14.289 10.57-26.331 24.858-26.888 6.325-.258 12.208 1.782 16.843 5.388-8.303 4.749-13.763 14.083-13.372 24.601 1.855 49.025 5.44 98.844 10.653 148.077z"/><path d="m501.945 197.632c-4.11 3.183-9.23 5.161-14.824 5.377-.34.01-.69.021-1.03.021-13.825 0-25.301-10.93-25.847-24.869-1.545-39.126-4.296-78.788-8.211-118.192-39.404-3.914-79.066-6.665-118.192-8.21-14.289-.556-25.414-12.599-24.848-26.877.556-14.289 12.599-25.415 26.888-24.858 2.318.093 4.646.186 6.974.288-3.276 4.306-5.305 9.684-5.532 15.587-.567 14.845 10.559 27.351 24.848 27.938 39.126 1.597 78.788 4.461 118.192 8.52 3.915 40.939 6.665 82.136 8.211 122.776.37 9.756 5.696 18.1 13.371 22.499z"/></g><g><path d="m132.582 337.545c-21.301 0-38.568-17.268-38.568-38.568 0-2.932.327-5.787.947-8.531 5.003-22.159 37.621-18.524 37.621 4.192h246.836c0-22.717 32.618-26.351 37.621-4.192.62 2.744.947 5.599.947 8.531 0 21.301-17.268 38.568-38.568 38.568" fill="#eaac9d"/><path d="m289.464 408.44h-66.929c-49.68 0-89.954-40.274-89.954-89.954v-55.744l16.731-71.123h209.77l20.335 71.123v55.744c.001 49.68-40.273 89.954-89.953 89.954z" fill="#ffcbbe"/><path d="m281.624 408.439h-59.089c-49.675 0-89.953-40.279-89.953-89.953v-126.872h59.089v126.872c0 49.675 40.27 89.953 89.953 89.953z" fill="#eaac9d"/><g fill="#544f57"><path d="m192.683 267.998c-6.43 0-11.661 8.679-11.661 19.348s5.231 19.348 11.661 19.348c6.429 0 11.66-8.679 11.66-19.348s-5.231-19.348-11.66-19.348z"/><path d="m319.317 267.998c-6.43 0-11.661 8.679-11.661 19.348s5.231 19.348 11.661 19.348 11.66-8.679 11.66-19.348c.001-10.669-5.23-19.348-11.66-19.348z"/></g><g fill="#e48e81"><ellipse cx="328.699" cy="324.881" rx="20.203" ry="12.284"/><ellipse cx="183.301" cy="324.881" rx="20.203" ry="12.284"/></g><path d="m268.018 312.187h-24.037c-4.267 0-7.727-3.459-7.727-7.727 0-4.267 3.459-7.727 7.727-7.727h24.037c4.268 0 7.727 3.459 7.727 7.727s-3.459 7.727-7.727 7.727z" fill="#eaac9d"/><path d="m379.412 181.036v81.707h-4.61c-14.303 0-25.898-11.595-25.898-25.898v-43.52l-25.615 11.777c-42.711 19.637-91.869 19.637-134.58 0l-25.615-11.777v43.52c0 14.303-11.595 25.898-25.898 25.898h-4.619v-81.707c0-42.79 34.688-77.479 77.479-77.479h91.879c42.789 0 77.477 34.689 77.477 77.479z" fill="#f9ef63"/><path d="m210.057 103.554h60.102c-42.785 0-77.472 34.687-77.472 77.481v25.833c-1.333-.578-2.658-1.165-3.982-1.769l-25.611-11.779v43.523c0 14.303-11.592 25.895-25.895 25.895h-4.623v-81.704c0-42.793 34.687-77.48 77.481-77.48z" fill="#f1d333"/><path d="m256 359.455c-13.621 0-25.851-8.025-31.159-20.446-1.677-3.924.144-8.464 4.068-10.141 3.923-1.678 8.464.145 10.141 4.068 2.873 6.722 9.525 11.065 16.949 11.065s14.077-4.343 16.949-11.065c1.676-3.923 6.215-5.748 10.141-4.068 3.924 1.677 5.746 6.217 4.068 10.141-5.306 12.42-17.537 20.446-31.157 20.446z" fill="#dd5790"/></g></g></svg>