<svg xmlns="http://www.w3.org/2000/svg" viewBox="0 0 400 300"><g id="_177_coding_flatline" data-name="#177_coding_flatline"><path d="M226.59,212.36l1.3-24.15-34.3-1.68-21.48,1.25s4,23.79,6.26,25.61S226.59,212.36,226.59,212.36Z" fill="#231f20"/><path d="M187,214.49c-4.85,0-8.32-.19-9-.71-2.32-1.89-6-23.47-6.44-25.92a.49.49,0,0,1,.1-.4.47.47,0,0,1,.36-.18L193.56,186l34.36,1.68a.46.46,0,0,1,.34.16.5.5,0,0,1,.13.37l-1.3,24.15a.51.51,0,0,1-.47.47C221.07,213.21,199.5,214.49,187,214.49Zm-14.33-26.25c1.57,9.17,4.5,23.55,6,24.76,1.72,1.22,29.8,0,47.42-1.11l1.26-23.21L193.56,187Zm53.9,24.12h0Z" fill="#231f20"/><path d="M150,237.73a2,2,0,0,1-1.09-3.68c4.47-2.92,9.61-6.83,10.55-8.29-.56-2.23-6.07-10.65-11.07-17.48a2,2,0,1,1,3.23-2.37c12.65,17.29,12,19.87,11.79,20.72-.71,2.85-8,8-12.32,10.77A2,2,0,0,1,150,237.73Zm9.5-11.76Z" fill="#231f20"/><rect x="142.98" y="199.19" width="10.37" height="39.75" rx="5.19" transform="translate(296.33 438.13) rotate(180)" fill="#231f20"/><path d="M148.16,239.44a5.69,5.69,0,0,1-5.68-5.69V204.38a5.69,5.69,0,1,1,11.37,0v29.37A5.69,5.69,0,0,1,148.16,239.44Zm0-39.75a4.69,4.69,0,0,0-4.68,4.69v29.37a4.69,4.69,0,1,0,9.37,0V204.38A4.69,4.69,0,0,0,148.16,199.69Z" fill="#231f20"/><path d="M250,237.73a2,2,0,0,1-1.09-.33c-4.3-2.8-11.61-7.92-12.32-10.77-.22-.85-.86-3.43,11.79-20.72a2,2,0,0,1,3.23,2.37c-5,6.86-10.55,15.32-11.08,17.5.84,1.35,6,5.32,10.56,8.27a2,2,0,0,1-1.09,3.68ZM240.53,226Z" fill="#231f20"/><rect x="246.65" y="199.19" width="10.37" height="39.75" rx="5.19" fill="#231f20"/><path d="M251.84,239.44a5.69,5.69,0,0,1-5.69-5.69V204.38a5.69,5.69,0,1,1,11.37,0v29.37A5.69,5.69,0,0,1,251.84,239.44Zm0-39.75a4.69,4.69,0,0,0-4.69,4.69v29.37a4.69,4.69,0,1,0,9.37,0V204.38A4.69,4.69,0,0,0,251.84,199.69Z" fill="#231f20"/><path d="M240.16,242.27l-2.09-21.22H161.93l-2.09,21.22a21.2,21.2,0,0,0,21.1,23.27h38.12A21.2,21.2,0,0,0,240.16,242.27Z" fill="#231f20"/><path d="M219.06,266H180.94a21.69,21.69,0,0,1-21.59-23.82L161.43,221a.51.51,0,0,1,.5-.45h76.14a.51.51,0,0,1,.5.45l2.08,21.22h0A21.69,21.69,0,0,1,219.06,266Zm-56.68-44.49-2,20.77A20.7,20.7,0,0,0,180.94,265h38.12a20.7,20.7,0,0,0,20.6-22.72l-2-20.77Z" fill="#231f20"/><rect x="88.32" y="122.29" width="223.36" height="74.35" fill="#fff"/><path d="M311.68,197.15H88.32a.5.5,0,0,1-.5-.5V122.29a.5.5,0,0,1,.5-.5H311.68a.5.5,0,0,1,.5.5v74.36A.5.5,0,0,1,311.68,197.15Zm-222.86-1H311.18V122.79H88.82Z" fill="#231f20"/><rect x="145.56" y="142.61" width="108.88" height="35.01" rx="4.02" fill="#fff"/><path d="M250.42,178.11H149.58a4.53,4.53,0,0,1-4.52-4.52v-27a4.52,4.52,0,0,1,4.52-4.52H250.42a4.52,4.52,0,0,1,4.52,4.52v27A4.53,4.53,0,0,1,250.42,178.11Zm-100.84-35a3.53,3.53,0,0,0-3.52,3.52v27a3.53,3.53,0,0,0,3.52,3.52H250.42a3.53,3.53,0,0,0,3.52-3.52v-27a3.53,3.53,0,0,0-3.52-3.52Z" fill="#d1d3d4"/><rect x="152.48" y="147.06" width="7.79" height="3.92" fill="#d1d3d4"/><path d="M160.27,151.48h-7.79a.51.51,0,0,1-.5-.5v-3.92a.5.5,0,0,1,.5-.5h7.79a.5.5,0,0,1,.5.5V151A.5.5,0,0,1,160.27,151.48Zm-7.29-1h6.79v-2.92H153Z" fill="#d1d3d4"/><rect x="152.48" y="154.45" width="7.79" height="3.92" fill="#fff"/><path d="M160.27,158.87h-7.79a.5.5,0,0,1-.5-.5v-3.92a.51.51,0,0,1,.5-.5h7.79a.5.5,0,0,1,.5.5v3.92A.5.5,0,0,1,160.27,158.87Zm-7.29-1h6.79V155H153Z" fill="#d1d3d4"/><rect x="152.48" y="161.85" width="7.79" height="3.92" fill="#fff"/><path d="M160.27,166.26h-7.79a.5.5,0,0,1-.5-.5v-3.91a.5.5,0,0,1,.5-.5h7.79a.5.5,0,0,1,.5.5v3.91A.5.5,0,0,1,160.27,166.26Zm-7.29-1h6.79v-2.91H153Z" fill="#d1d3d4"/><rect x="152.48" y="169.24" width="7.79" height="3.92" fill="#fff"/><path d="M160.27,173.66h-7.79a.5.5,0,0,1-.5-.5v-3.92a.5.5,0,0,1,.5-.5h7.79a.5.5,0,0,1,.5.5v3.92A.5.5,0,0,1,160.27,173.66Zm-7.29-1h6.79v-2.92H153Z" fill="#d1d3d4"/><rect x="164.95" y="147.06" width="7.79" height="3.92" fill="#fff"/><path d="M172.74,151.48H165a.5.5,0,0,1-.5-.5v-3.92a.5.5,0,0,1,.5-.5h7.79a.5.5,0,0,1,.5.5V151A.51.51,0,0,1,172.74,151.48Zm-7.29-1h6.79v-2.92h-6.79Z" fill="#d1d3d4"/><rect x="164.95" y="154.45" width="7.79" height="3.92" fill="#fff"/><path d="M172.74,158.87H165a.5.5,0,0,1-.5-.5v-3.92a.5.5,0,0,1,.5-.5h7.79a.51.51,0,0,1,.5.5v3.92A.5.5,0,0,1,172.74,158.87Zm-7.29-1h6.79V155h-6.79Z" fill="#d1d3d4"/><rect x="164.95" y="161.85" width="7.79" height="3.92" fill="#fff"/><path d="M172.74,166.26H165a.5.5,0,0,1-.5-.5v-3.91a.5.5,0,0,1,.5-.5h7.79a.5.5,0,0,1,.5.5v3.91A.5.5,0,0,1,172.74,166.26Zm-7.29-1h6.79v-2.91h-6.79Z" fill="#d1d3d4"/><rect x="164.95" y="169.24" width="7.79" height="3.92" fill="#fff"/><path d="M172.74,173.66H165a.5.5,0,0,1-.5-.5v-3.92a.5.5,0,0,1,.5-.5h7.79a.5.5,0,0,1,.5.5v3.92A.5.5,0,0,1,172.74,173.66Zm-7.29-1h6.79v-2.92h-6.79Z" fill="#d1d3d4"/><rect x="177.41" y="147.06" width="7.79" height="3.92" fill="#fff"/><path d="M185.2,151.48h-7.79a.5.5,0,0,1-.5-.5v-3.92a.5.5,0,0,1,.5-.5h7.79a.5.5,0,0,1,.5.5V151A.5.5,0,0,1,185.2,151.48Zm-7.29-1h6.79v-2.92h-6.79Z" fill="#d1d3d4"/><rect x="177.41" y="154.45" width="7.79" height="3.92" fill="#fff"/><path d="M185.2,158.87h-7.79a.5.5,0,0,1-.5-.5v-3.92a.5.5,0,0,1,.5-.5h7.79a.5.5,0,0,1,.5.5v3.92A.5.5,0,0,1,185.2,158.87Zm-7.29-1h6.79V155h-6.79Z" fill="#d1d3d4"/><rect x="177.41" y="161.85" width="7.79" height="3.92" fill="#fff"/><path d="M185.2,166.26h-7.79a.5.5,0,0,1-.5-.5v-3.91a.5.5,0,0,1,.5-.5h7.79a.5.5,0,0,1,.5.5v3.91A.5.5,0,0,1,185.2,166.26Zm-7.29-1h6.79v-2.91h-6.79Z" fill="#d1d3d4"/><rect x="177.41" y="169.24" width="45.18" height="3.92" fill="#d1d3d4"/><path d="M222.59,173.66H177.41a.5.5,0,0,1-.5-.5v-3.92a.5.5,0,0,1,.5-.5h45.18a.5.5,0,0,1,.5.5v3.92A.5.5,0,0,1,222.59,173.66Zm-44.68-1h44.18v-2.92H177.91Z" fill="#d1d3d4"/><rect x="189.87" y="147.06" width="7.79" height="3.92" fill="#fff"/><path d="M197.66,151.48h-7.79a.51.51,0,0,1-.5-.5v-3.92a.5.5,0,0,1,.5-.5h7.79a.5.5,0,0,1,.5.5V151A.5.5,0,0,1,197.66,151.48Zm-7.29-1h6.79v-2.92h-6.79Z" fill="#d1d3d4"/><rect x="189.87" y="154.45" width="7.79" height="3.92" fill="#fff"/><path d="M197.66,158.87h-7.79a.5.5,0,0,1-.5-.5v-3.92a.51.51,0,0,1,.5-.5h7.79a.5.5,0,0,1,.5.5v3.92A.5.5,0,0,1,197.66,158.87Zm-7.29-1h6.79V155h-6.79Z" fill="#d1d3d4"/><rect x="189.87" y="161.85" width="7.79" height="3.92" fill="#fff"/><path d="M197.66,166.26h-7.79a.5.5,0,0,1-.5-.5v-3.91a.5.5,0,0,1,.5-.5h7.79a.5.5,0,0,1,.5.5v3.91A.5.5,0,0,1,197.66,166.26Zm-7.29-1h6.79v-2.91h-6.79Z" fill="#d1d3d4"/><rect x="202.34" y="147.06" width="7.79" height="3.92" fill="#fff"/><path d="M210.13,151.48h-7.79a.5.5,0,0,1-.5-.5v-3.92a.5.5,0,0,1,.5-.5h7.79a.5.5,0,0,1,.5.5V151A.51.51,0,0,1,210.13,151.48Zm-7.29-1h6.79v-2.92h-6.79Z" fill="#d1d3d4"/><rect x="202.34" y="154.45" width="7.79" height="3.92" fill="#fff"/><path d="M210.13,158.87h-7.79a.5.5,0,0,1-.5-.5v-3.92a.5.5,0,0,1,.5-.5h7.79a.51.51,0,0,1,.5.5v3.92A.5.5,0,0,1,210.13,158.87Zm-7.29-1h6.79V155h-6.79Z" fill="#d1d3d4"/><rect x="202.34" y="161.85" width="7.79" height="3.92" fill="#fff"/><path d="M210.13,166.26h-7.79a.5.5,0,0,1-.5-.5v-3.91a.5.5,0,0,1,.5-.5h7.79a.5.5,0,0,1,.5.5v3.91A.5.5,0,0,1,210.13,166.26Zm-7.29-1h6.79v-2.91h-6.79Z" fill="#d1d3d4"/><rect x="214.8" y="147.06" width="7.79" height="3.92" fill="#fff"/><path d="M222.59,151.48H214.8a.5.5,0,0,1-.5-.5v-3.92a.5.5,0,0,1,.5-.5h7.79a.5.5,0,0,1,.5.5V151A.5.5,0,0,1,222.59,151.48Zm-7.29-1h6.79v-2.92H215.3Z" fill="#d1d3d4"/><rect x="214.8" y="154.45" width="7.79" height="3.92" fill="#fff"/><path d="M222.59,158.87H214.8a.5.5,0,0,1-.5-.5v-3.92a.5.5,0,0,1,.5-.5h7.79a.5.5,0,0,1,.5.5v3.92A.5.5,0,0,1,222.59,158.87Zm-7.29-1h6.79V155H215.3Z" fill="#d1d3d4"/><rect x="214.8" y="161.85" width="7.79" height="3.92" fill="#fff"/><path d="M222.59,166.26H214.8a.5.5,0,0,1-.5-.5v-3.91a.5.5,0,0,1,.5-.5h7.79a.5.5,0,0,1,.5.5v3.91A.5.5,0,0,1,222.59,166.26Zm-7.29-1h6.79v-2.91H215.3Z" fill="#d1d3d4"/><rect x="227.26" y="147.06" width="7.79" height="3.92" fill="#fff"/><path d="M235.05,151.48h-7.79a.51.51,0,0,1-.5-.5v-3.92a.5.5,0,0,1,.5-.5h7.79a.5.5,0,0,1,.5.5V151A.5.5,0,0,1,235.05,151.48Zm-7.29-1h6.79v-2.92h-6.79Z" fill="#d1d3d4"/><rect x="227.26" y="154.45" width="7.79" height="3.92" fill="#fff"/><path d="M235.05,158.87h-7.79a.5.5,0,0,1-.5-.5v-3.92a.51.51,0,0,1,.5-.5h7.79a.5.5,0,0,1,.5.5v3.92A.5.5,0,0,1,235.05,158.87Zm-7.29-1h6.79V155h-6.79Z" fill="#d1d3d4"/><rect x="227.26" y="161.85" width="7.79" height="3.92" fill="#fff"/><path d="M235.05,166.26h-7.79a.5.5,0,0,1-.5-.5v-3.91a.5.5,0,0,1,.5-.5h7.79a.5.5,0,0,1,.5.5v3.91A.5.5,0,0,1,235.05,166.26Zm-7.29-1h6.79v-2.91h-6.79Z" fill="#d1d3d4"/><rect x="227.26" y="169.24" width="7.79" height="3.92" fill="#fff"/><path d="M235.05,173.66h-7.79a.5.5,0,0,1-.5-.5v-3.92a.5.5,0,0,1,.5-.5h7.79a.5.5,0,0,1,.5.5v3.92A.5.5,0,0,1,235.05,173.66Zm-7.29-1h6.79v-2.92h-6.79Z" fill="#d1d3d4"/><rect x="239.73" y="147.06" width="7.79" height="3.92" fill="#fff"/><path d="M247.52,151.48h-7.79a.5.5,0,0,1-.5-.5v-3.92a.5.5,0,0,1,.5-.5h7.79a.5.5,0,0,1,.5.5V151A.51.51,0,0,1,247.52,151.48Zm-7.29-1H247v-2.92h-6.79Z" fill="#d1d3d4"/><rect x="239.73" y="154.45" width="7.79" height="3.92" fill="#fff"/><path d="M247.52,158.87h-7.79a.5.5,0,0,1-.5-.5v-3.92a.5.5,0,0,1,.5-.5h7.79a.51.51,0,0,1,.5.5v3.92A.5.5,0,0,1,247.52,158.87Zm-7.29-1H247V155h-6.79Z" fill="#d1d3d4"/><rect x="239.73" y="161.85" width="7.79" height="3.92" fill="#fff"/><path d="M247.52,166.26h-7.79a.5.5,0,0,1-.5-.5v-3.91a.5.5,0,0,1,.5-.5h7.79a.5.5,0,0,1,.5.5v3.91A.5.5,0,0,1,247.52,166.26Zm-7.29-1H247v-2.91h-6.79Z" fill="#d1d3d4"/><rect x="239.73" y="169.24" width="7.79" height="3.92" fill="#fff"/><path d="M247.52,173.66h-7.79a.5.5,0,0,1-.5-.5v-3.92a.5.5,0,0,1,.5-.5h7.79a.5.5,0,0,1,.5.5v3.92A.5.5,0,0,1,247.52,173.66Zm-7.29-1H247v-2.92h-6.79Z" fill="#d1d3d4"/><path d="M222.73,170.14s-9-6.13-8.24-7.44,6.92,1.54,6.92,1.54-1.41-5.93-2.22-7.1-2.66-3.06-2.66-3.72.62-1.6,1.21-1.3,3.74,2.89,3.93,3.51.65,1.88.65,1.88.31-3.6-.72-4.55-2.42-2.2-2.4-2.69,1-1.73,1.58-1.44a14.18,14.18,0,0,1,3.4,3.24,47.46,47.46,0,0,1,1.22,5s.59-3.81.14-4.73-2.16-2.49-.89-3.67,3.41,5.27,3.64,6.9c0-1.35.05-2.71.12-4.07.07-1.2.45-1.9,1.49-.75a4,4,0,0,1,.79,2.37c.24,3.16-.45,6.29-.7,9.42-.32,3.92,1.06,7.5,2.06,11.26q1.74,6.57,3.4,13.17c1,4.16,2.06,8.33,2.94,12.53.44,2.09,1.37,4.82,1,7-.63,3.82-14.67,13-14.67,13Z" fill="#fff"/><path d="M224.74,220a.59.59,0,0,1-.23-.05.52.52,0,0,1-.27-.43l-2-49.1c-4.25-2.9-9-6.58-8.19-8s4.39,0,6.62.92a31.82,31.82,0,0,0-1.9-5.93c-.27-.39-.68-.88-1.07-1.36-1-1.26-1.68-2.07-1.68-2.65a2.1,2.1,0,0,1,.89-1.68,1.07,1.07,0,0,1,1.05-.07,23.44,23.44,0,0,1,3.82,3.26,2.91,2.91,0,0,0-.53-1.6l-.27-.26c-1.58-1.46-2.32-2.21-2.29-2.83a2.74,2.74,0,0,1,1.25-1.76,1.08,1.08,0,0,1,1.06-.09,14.08,14.08,0,0,1,3.62,3.47,14.16,14.16,0,0,1,.58,2,3.72,3.72,0,0,0-.12-1.3,5.41,5.41,0,0,0-.42-.66c-.62-.9-1.66-2.39-.36-3.59a.93.93,0,0,1,1-.22c1,.34,1.91,2.34,2.57,4.21,0-.28,0-.55,0-.82,0-.65.15-1.53.81-1.77s1.33.47,1.54.7a4.4,4.4,0,0,1,.91,2.67,32.37,32.37,0,0,1-.37,6.55c-.12,1-.24,2-.32,3-.25,3.07.57,5.92,1.43,8.93.21.72.42,1.44.61,2.16,1.28,4.79,2.39,9.1,3.41,13.18,1.16,4.65,2.1,8.56,2.94,12.54.1.47.22,1,.35,1.5a15.09,15.09,0,0,1,.67,5.68c-.64,3.92-13.43,12.42-14.89,13.38A.5.5,0,0,1,224.74,220Zm-9.39-57.16c-.24,0-.39,0-.44.12.05.76,4.22,4.14,8.11,6.77a.48.48,0,0,1,.21.39l2,48.47c4.27-2.87,13.26-9.43,13.71-12.21a14.29,14.29,0,0,0-.65-5.28c-.13-.53-.26-1-.36-1.53-.83-4-1.77-7.87-2.93-12.51-1-4.07-2.13-8.37-3.4-13.16-.2-.72-.4-1.43-.61-2.15-.85-3-1.73-6-1.47-9.28.08-1,.21-2,.33-3a32.15,32.15,0,0,0,.37-6.35,3.55,3.55,0,0,0-.66-2.08,1.61,1.61,0,0,0-.49-.41,6.32,6.32,0,0,0-.13.86c0,.9-.07,1.81-.09,2.71l0,1.35a.49.49,0,0,1-.47.48.49.49,0,0,1-.52-.42c-.27-1.88-2-6.49-2.83-6.62-.55.53-.28,1.14.52,2.3a6.75,6.75,0,0,1,.5.79c.5,1,0,4.36-.1,5a.5.5,0,0,1-.48.42.48.48,0,0,1-.5-.4,43.81,43.81,0,0,0-1.18-4.85,14.22,14.22,0,0,0-3.17-3c-.22,0-.83.75-.86,1a13.44,13.44,0,0,0,2,2l.27.25c1.15,1.07.94,4.32.88,5a.51.51,0,0,1-.43.46.52.52,0,0,1-.54-.33s-.47-1.27-.66-1.9a20.67,20.67,0,0,0-3.67-3.21s-.07,0-.15.09a1.18,1.18,0,0,0-.34.76,10.49,10.49,0,0,0,1.45,2c.43.51.83,1,1.12,1.42.84,1.21,2.15,6.65,2.29,7.26a.5.5,0,0,1-.17.51.49.49,0,0,1-.52.06A18.63,18.63,0,0,0,215.35,162.84Z" fill="#231f20"/><path d="M175.18,200.94,183.7,167s5.53-2.09,6.13-4.63-4.33,0-4.33,0l1.79-6s1.59,3.13,2.59,1.49-2-7.77-3.19-7.62-8.06,2.54-8.51,3.74-1.65,9.86-1.65,9.86-17.77,32-17.77,34.2S175.18,200.94,175.18,200.94Z" fill="#fff"/><path d="M175.18,201.44h0c-6.31-.24-16.9-1-16.9-3.37S174,167.36,176.05,163.7c.17-1.24,1.22-8.69,1.66-9.87.59-1.56,7.85-3.92,8.92-4.05.56-.08,1.2.44,1.93,1.56,1.06,1.63,2.66,5.31,1.75,6.81a1.32,1.32,0,0,1-1.15.72,2.61,2.61,0,0,1-1.71-1.26l-1.15,3.84c1.17-.5,2.86-1,3.65-.42a1.31,1.31,0,0,1,.36,1.46c-.58,2.48-5,4.4-6.18,4.88l-8.47,33.69A.51.51,0,0,1,175.18,201.44Zm11.54-50.67c-1.27.16-7.68,2.54-8.07,3.42s-1.29,7.35-1.62,9.74a.55.55,0,0,1-.06.18c-6.82,12.26-17.66,32.33-17.71,34,.29.94,7.36,2,15.53,2.35l8.43-33.54a.5.5,0,0,1,.31-.35c1.47-.55,5.37-2.41,5.81-4.27,0-.23,0-.4,0-.44-.39-.31-2.21.28-3.6,1a.5.5,0,0,1-.55-.06.49.49,0,0,1-.16-.53l1.79-6a.5.5,0,0,1,.92-.08c.41.79,1.11,1.68,1.47,1.7.08,0,.2-.15.25-.24.26-.43.15-1.81-.71-3.81S187,150.83,186.72,150.77Z" fill="#231f20"/><path d="M222.67,198.53,219.93,205s-26.48-3.65-41.56,2.11l-.67-9.54L158.2,194c-.79,2.17-.58,31.64,3.9,43s19.33,21,49.74,15.32c0,0,22.63-9,27.58-20.75,3.17-7.53,3-26,2.36-36.13Z" fill="#3e3e54"/><path d="M176.9,226.94a8.45,8.45,0,0,0,.66,3,2,2,0,0,0,1.53,1.3c1,.07,1.64-1,2-1.91,1-2.79,2.57-8.51-.95-10.24C176.06,217.12,176.74,224.72,176.9,226.94Z" fill="#fff"/><path d="M179.17,231.78h-.12a2.46,2.46,0,0,1-1.94-1.58,9,9,0,0,1-.71-3.21h0v-.21c-.26-3.39-.28-7,1.4-8.15a2.43,2.43,0,0,1,2.55,0c4,2,2.16,8.25,1.2,10.86C181,231,180.15,231.78,179.17,231.78Zm-1.77-4.87a8,8,0,0,0,.62,2.85c.1.23.5,1,1.1,1,.8.05,1.34-1.21,1.48-1.59.87-2.36,2.54-8-.7-9.62-1-.49-1.41-.21-1.55-.12-1.43,1-1.08,5.69-1,7.25Z" fill="#231f20"/><path d="M214.43,225.22a8.66,8.66,0,0,0,.66,3,2,2,0,0,0,1.53,1.3c1,.07,1.64-1,2-1.91,1-2.8,2.57-8.51-.95-10.24C213.59,215.4,214.27,223,214.43,225.22Z" fill="#fff"/><path d="M216.7,230.06h-.11a2.45,2.45,0,0,1-2-1.59,8.87,8.87,0,0,1-.71-3.2v-.21c-.25-3.39-.28-7,1.4-8.15a2.43,2.43,0,0,1,2.55,0c4,2,2.16,8.25,1.2,10.86C218.54,229.25,217.68,230.06,216.7,230.06Zm-.27-12.5a.85.85,0,0,0-.55.17c-1.43,1-1.08,5.69-1,7.25l0,.2h0a8,8,0,0,0,.62,2.86c.1.22.5,1,1.1,1,.81,0,1.34-1.2,1.48-1.59.87-2.36,2.54-8-.7-9.62A2.38,2.38,0,0,0,216.43,217.56Z" fill="#231f20"/><path d="M217.58,223.63s-2.52-10.06-9-15.09-15.4-4.4-19.17-1.73-10.69,10.69-9.28,23.57S217.58,223.63,217.58,223.63Z" fill="#fff"/><path d="M186.48,235.26a9.17,9.17,0,0,1-4.2-.84,4.78,4.78,0,0,1-2.6-4c-1.39-12.69,5.3-21.08,9.48-24,3.76-2.66,13-3.57,19.77,1.75,6.5,5.07,9,14.94,9.13,15.36a.49.49,0,0,1-.24.56C216.86,224.59,197.17,235.26,186.48,235.26Zm10.83-30a13.61,13.61,0,0,0-7.57,2c-4,2.83-10.41,10.88-9.07,23.11a3.79,3.79,0,0,0,2.07,3.2c7.41,3.87,31.09-8.47,34.25-10.15-.53-1.86-3.14-10.12-8.68-14.45A17.9,17.9,0,0,0,197.31,205.25Z" fill="#231f20"/><path d="M207,220.46c-2.44.75-4.74,1.81-7.12,2.69.5-2.13,3.26-4.61,4.74-6.15-5.66-1.37-12.41.68-17,4.08l2-4.17A21.31,21.31,0,0,0,177,229.54c-3.92,10.44.91,23.16,11.2,27.56,8.61,3.67,19.78,2.45,26.88-3.73a21.49,21.49,0,0,0,6.79-13.24c.73-5.14.35-11.46-2.17-16-1.27-2.32-3.22-4.46-6-4.75a13.66,13.66,0,0,0-5,.66Z" fill="#fff"/><path d="M198.55,259.68A27,27,0,0,1,188,257.56c-10.31-4.41-15.56-17.31-11.48-28.19a21.76,21.76,0,0,1,13.06-12.94.5.5,0,0,1,.61.7l-1.21,2.47c4.92-3.06,10.95-4.26,15.82-3.08a.49.49,0,0,1,.36.35.5.5,0,0,1-.12.48l-.78.79a19.78,19.78,0,0,0-3.45,4.14l1.57-.62c1.47-.59,3-1.2,4.53-1.68h0l1.62-.47a14,14,0,0,1,5.22-.68c2.52.26,4.73,2,6.38,5,2.26,4.13,3.1,10.25,2.23,16.36a21.94,21.94,0,0,1-7,13.55A25.74,25.74,0,0,1,198.55,259.68Zm-9.85-41.86a20.85,20.85,0,0,0-11.28,11.9c-3.9,10.39,1.1,22.72,10.93,26.92,8.76,3.74,19.59,2.24,26.35-3.64a20.89,20.89,0,0,0,6.63-12.95c.84-5.9,0-11.78-2.12-15.73-1-1.89-2.85-4.21-5.61-4.49a13,13,0,0,0-4.84.64l-1.59.47h0c-1.52.47-3,1.06-4.45,1.64-.88.36-1.76.71-2.65,1a.51.51,0,0,1-.5-.1.5.5,0,0,1-.16-.49c.45-1.93,2.56-4.05,4.1-5.6l.13-.12c-5.61-1-11.84,1.31-15.68,4.17a.51.51,0,0,1-.62,0,.5.5,0,0,1-.13-.6Z" fill="#231f20"/><path d="M194.75,211.33s1.14-7.14,2.43-8,2.52,3.31,2.52,3.31" fill="#fff"/><path d="M194.75,211.83h-.08a.49.49,0,0,1-.41-.57c.27-1.73,1.27-7.43,2.65-8.31a1.14,1.14,0,0,1,1-.11c1.23.46,2.08,3.17,2.24,3.7a.49.49,0,0,1-.34.62.5.5,0,0,1-.62-.33c-.39-1.32-1.13-2.86-1.63-3a.12.12,0,0,0-.14,0c-.68.43-1.68,4.29-2.21,7.62A.5.5,0,0,1,194.75,211.83Z" fill="#231f20"/><circle cx="204.45" cy="209.38" r="1.03" fill="#231f20"/><circle cx="189.48" cy="210.68" r="1.03" fill="#231f20"/><path d="M227.31,210.36a.51.51,0,0,1-.43-.23c-1.75-2.84-7.31-4-7.37-4a.5.5,0,0,1,.2-1c.24.05,6,1.26,8,4.46a.49.49,0,0,1-.16.69A.48.48,0,0,1,227.31,210.36Z" fill="#231f20"/><path d="M170.47,209.12a.51.51,0,0,1-.31-.9c3.45-2.7,8.12-1.66,8.32-1.61a.49.49,0,0,1,.37.6.5.5,0,0,1-.6.37s-4.4-1-7.47,1.43A.51.51,0,0,1,170.47,209.12Z" fill="#231f20"/><path d="M177.66,206.29a.52.52,0,0,1-.38-.17c0-.05-4.38-5-9.37-4.66a.5.5,0,0,1-.53-.47.49.49,0,0,1,.46-.53c5.49-.37,10,4.78,10.2,5a.51.51,0,0,1,0,.71A.52.52,0,0,1,177.66,206.29Z" fill="#231f20"/><path d="M235.57,207h-.1c-.11,0-11.61-2.31-14.86-1.47a.5.5,0,1,1-.25-1c3.47-.89,14.83,1.36,15.31,1.46a.5.5,0,0,1-.1,1Z" fill="#231f20"/><circle cx="118.64" cy="160.67" r="13.01" fill="#fff"/><path d="M118.64,174.18a13.51,13.51,0,1,1,13.51-13.51A13.52,13.52,0,0,1,118.64,174.18Zm0-26a12.51,12.51,0,1,0,12.51,12.51A12.52,12.52,0,0,0,118.64,148.16Z" fill="#d1d3d4"/><rect x="121.64" y="164.87" width="2.56" height="5.68" rx="1.28" transform="translate(313.42 251.09) rotate(149.88)" fill="#fff"/><path d="M123.71,170.84a1.82,1.82,0,0,1-.46-.06,1.75,1.75,0,0,1-1.08-.82l-1.57-2.71a1.78,1.78,0,0,1,3.08-1.78l1.57,2.7a1.77,1.77,0,0,1-.65,2.43A1.75,1.75,0,0,1,123.71,170.84Zm-1.57-5.26a.76.76,0,0,0-.75.58.72.72,0,0,0,.08.59l1.56,2.7a.84.84,0,0,0,.48.37.81.81,0,0,0,.59-.08h0a.79.79,0,0,0,.36-.48.72.72,0,0,0-.08-.59l-1.56-2.7A.79.79,0,0,0,122.14,165.58Z" fill="#d1d3d4"/><circle cx="118.64" cy="160.32" r="8.17" fill="#fff"/><path d="M118.65,169a8.69,8.69,0,0,1-7.51-4.31h0A8.67,8.67,0,1,1,123,167.81,8.56,8.56,0,0,1,118.65,169ZM112,164.16a7.67,7.67,0,1,0,2.79-10.47A7.63,7.63,0,0,0,112,164.16Z" fill="#d1d3d4"/><circle cx="119" cy="160.94" r="6.7" fill="#d1d3d4"/><rect x="271.23" y="156.5" width="14.76" height="20.79" rx="7.38" fill="#fff"/><path d="M278.61,177.79a7.9,7.9,0,0,1-7.88-7.88v-6a7.88,7.88,0,0,1,15.76,0v6A7.89,7.89,0,0,1,278.61,177.79Zm0-20.79a6.89,6.89,0,0,0-6.88,6.88v6a6.88,6.88,0,0,0,13.76,0v-6A6.89,6.89,0,0,0,278.61,157Z" fill="#d1d3d4"/><path d="M286,164.38H271.23a.5.5,0,0,1-.5-.5.5.5,0,0,1,.5-.5H286a.5.5,0,0,1,.5.5A.5.5,0,0,1,286,164.38Z" fill="#d1d3d4"/><path d="M278.61,162.24a.5.5,0,0,1-.5-.5V156.5a.5.5,0,0,1,.5-.5.5.5,0,0,1,.5.5v5.24A.5.5,0,0,1,278.61,162.24Z" fill="#d1d3d4"/><path d="M200,252.52h0a.5.5,0,0,1-.47-.53c0-.2.39-5,6.45-9.11a.52.52,0,0,1,.7.13.51.51,0,0,1-.14.7c-5.63,3.83-6,8.3-6,8.35A.5.5,0,0,1,200,252.52Z" fill="#d1d3d4"/><path d="M197.23,252.53h-.1c-.07,0-7.34-1.46-8.15-7.75a.5.5,0,0,1,.43-.56.5.5,0,0,1,.56.43c.72,5.57,7.28,6.88,7.35,6.89a.5.5,0,0,1-.09,1Z" fill="#d1d3d4"/><rect x="108.29" y="34.46" width="183.42" height="102.24" fill="#fff"/><path d="M291.71,137.2H108.29a.5.5,0,0,1-.5-.5V34.46a.5.5,0,0,1,.5-.5H291.71a.5.5,0,0,1,.5.5V136.7A.5.5,0,0,1,291.71,137.2Zm-182.92-1H291.21V35H108.79Z" fill="#231f20"/><path d="M290.32,45.23H109.68a.5.5,0,0,1-.5-.5.5.5,0,0,1,.5-.5H290.32a.5.5,0,0,1,.5.5A.5.5,0,0,1,290.32,45.23Z" fill="#d1d3d4"/><circle cx="114.46" cy="39.28" r="1.6" fill="#d1d3d4"/><circle cx="121.03" cy="39.28" r="1.6" fill="#d1d3d4"/><circle cx="127.6" cy="39.28" r="1.6" fill="#d1d3d4"/><path d="M142.81,54.3H131.62a.5.5,0,0,1,0-1h11.19a.5.5,0,0,1,0,1Z" fill="#231f20"/><path d="M171,54.3H148.69a.5.5,0,0,1,0-1H171a.5.5,0,0,1,0,1Z" fill="#3e3e54"/><path d="M177.72,61.73H155.41a.5.5,0,0,1,0-1h22.31a.5.5,0,0,1,0,1Z" fill="#3e3e54"/><path d="M145.43,61.73H134.25a.5.5,0,0,1,0-1h11.18a.5.5,0,0,1,0,1Z" fill="#231f20"/><path d="M145.86,69.16h-9a.5.5,0,0,1,0-1h9a.5.5,0,0,1,0,1Z" fill="#231f20"/><path d="M181.71,69.16H153.78a.5.5,0,0,1,0-1h27.93a.5.5,0,0,1,0,1Z" fill="#3e3e54"/><path d="M150.68,76.59H139.5a.5.5,0,0,1,0-1h11.18a.5.5,0,0,1,0,1Z" fill="#231f20"/><path d="M187.48,76.59h-33.2a.5.5,0,0,1,0-1h33.2a.5.5,0,0,1,0,1Z" fill="#3e3e54"/><path d="M147.71,84H136.53a.5.5,0,0,1,0-1h11.18a.5.5,0,0,1,0,1Z" fill="#231f20"/><path d="M170,84H152a.5.5,0,0,1,0-1h18a.5.5,0,0,1,0,1Z" fill="#3e3e54"/><path d="M194.89,84h-18a.5.5,0,0,1,0-1h18a.5.5,0,0,1,0,1Z" fill="#3e3e54"/><path d="M140.38,91.45h-3.85a.5.5,0,0,1,0-1h3.85a.5.5,0,0,1,0,1Z" fill="#231f20"/><path d="M170,91.45H147a.5.5,0,0,1,0-1H170a.5.5,0,0,1,0,1Z" fill="#3e3e54"/><path d="M179.08,91.45h-6.43a.5.5,0,0,1,0-1h6.43a.5.5,0,0,1,0,1Z" fill="#3e3e54"/><path d="M142.58,98.88h-6.05a.5.5,0,0,1,0-1h6.05a.5.5,0,0,1,0,1Z" fill="#231f20"/><path d="M175.65,98.88H148.28a.5.5,0,0,1,0-1h27.37a.5.5,0,0,1,0,1Z" fill="#3e3e54"/><path d="M189.53,98.88H178.35a.5.5,0,0,1,0-1h11.18a.5.5,0,0,1,0,1Z" fill="#3e3e54"/><path d="M139.84,106.31h-5.93a.5.5,0,0,1-.5-.5.5.5,0,0,1,.5-.5h5.93a.5.5,0,0,1,.5.5A.5.5,0,0,1,139.84,106.31Z" fill="#231f20"/><path d="M172.65,106.31h-25.9a.5.5,0,0,1-.5-.5.5.5,0,0,1,.5-.5h25.9a.5.5,0,0,1,.5.5A.5.5,0,0,1,172.65,106.31Z" fill="#3e3e54"/><path d="M145.09,113.74H133.91a.5.5,0,0,1,0-1h11.18a.5.5,0,0,1,0,1Z" fill="#231f20"/><path d="M157.87,121.17H135.56a.5.5,0,0,1,0-1h22.31a.5.5,0,0,1,0,1Z" fill="#231f20"/><path d="M179.08,121.17H163.57a.5.5,0,0,1,0-1h15.51a.5.5,0,0,1,0,1Z" fill="#3e3e54"/><path d="M200.5,121.17H181.3a.5.5,0,0,1,0-1h19.2a.5.5,0,0,1,0,1Z" fill="#3e3e54"/><path d="M169.05,128.6H136.53a.5.5,0,0,1,0-1h32.52a.5.5,0,0,1,0,1Z" fill="#231f20"/><path d="M187.9,128.6H173.27a.5.5,0,0,1,0-1H187.9a.5.5,0,0,1,0,1Z" fill="#3e3e54"/><path d="M233.89,128.6H199.56a.5.5,0,0,1,0-1h34.33a.5.5,0,0,1,0,1Z" fill="#3e3e54"/><path d="M207.12,76.59H192a.5.5,0,0,1,0-1h15.12a.5.5,0,0,1,0,1Z" fill="#3e3e54"/><path d="M218.35,76.67c-5.23,0-5.39-.09-5.48-.14a.5.5,0,0,1-.21-.68.49.49,0,0,1,.58-.24c.79.1,10.62,0,17.07,0h0a.5.5,0,1,1,0,1C224.71,76.64,220.92,76.67,218.35,76.67Z" fill="#3e3e54"/><path d="M204.7,61.73H182.76a.5.5,0,0,1,0-1H204.7a.5.5,0,0,1,0,1Z" fill="#3e3e54"/><path d="M231,61.73H209.11a.5.5,0,0,1,0-1H231a.5.5,0,0,1,0,1Z" fill="#3e3e54"/><path d="M184.55,54.34c-5.05,0-7.66,0-7.8-.06a.49.49,0,0,1-.35-.61.51.51,0,0,1,.56-.37c.82.07,18.46,0,25.22,0h0a.5.5,0,0,1,.5.5.5.5,0,0,1-.5.5Z" fill="#3e3e54"/><path d="M208.17,54.3a.49.49,0,0,1-.39-.19.49.49,0,0,1,.08-.7c.17-.14.45-.36,15.33-.11a.49.49,0,0,1,.49.51.48.48,0,0,1-.51.49c-5.32-.09-14-.18-14.82,0A.39.39,0,0,1,208.17,54.3Z" fill="#231f20"/><path d="M187,106.31H175.65a.5.5,0,0,1-.5-.5.5.5,0,0,1,.5-.5H187a.5.5,0,0,1,.5.5A.5.5,0,0,1,187,106.31Z" fill="#3e3e54"/><path d="M161,113.74h-8.32a.5.5,0,0,1,0-1H161a.5.5,0,0,1,0,1Z" fill="#3e3e54"/><path d="M183.94,113.74H164.16a.5.5,0,0,1,0-1h19.78a.5.5,0,0,1,0,1Z" fill="#231f20"/><path d="M226.23,113.74H187.9a.5.5,0,0,1,0-1h38.33a.5.5,0,0,1,0,1Z" fill="#3e3e54"/><path d="M251.84,132.68a.5.5,0,0,1-.5-.5V44.73a.5.5,0,0,1,.5-.5.5.5,0,0,1,.5.5v87.45A.51.51,0,0,1,251.84,132.68Z" fill="#d1d3d4"/><path d="M282.83,53H259.18a.51.51,0,0,1-.5-.5.5.5,0,0,1,.5-.5h23.65a.5.5,0,0,1,.5.5A.5.5,0,0,1,282.83,53Z" fill="#3e3e54"/><path d="M282.83,61.4H259.18a.51.51,0,0,1-.5-.5.5.5,0,0,1,.5-.5h23.65a.5.5,0,0,1,.5.5A.5.5,0,0,1,282.83,61.4Z" fill="#3e3e54"/><path d="M274.86,69.8H259.18a.51.51,0,0,1-.5-.5.5.5,0,0,1,.5-.5h15.68a.5.5,0,0,1,.5.5A.51.51,0,0,1,274.86,69.8Z" fill="#231f20"/><path d="M282.83,78.2H266.41a.5.5,0,0,1-.5-.5.5.5,0,0,1,.5-.5h16.42a.5.5,0,0,1,.5.5A.5.5,0,0,1,282.83,78.2Z" fill="#3e3e54"/><path d="M276.55,86.6H259.18a.51.51,0,0,1-.5-.5.5.5,0,0,1,.5-.5h17.37a.5.5,0,0,1,.5.5A.51.51,0,0,1,276.55,86.6Z" fill="#231f20"/><path d="M267.87,95h-8.69a.51.51,0,0,1-.5-.5.5.5,0,0,1,.5-.5h8.69a.5.5,0,0,1,.5.5A.51.51,0,0,1,267.87,95Z" fill="#3e3e54"/><path d="M278.47,103.4H259.18a.51.51,0,0,1-.5-.5.5.5,0,0,1,.5-.5h19.29a.5.5,0,0,1,.5.5A.5.5,0,0,1,278.47,103.4Z" fill="#3e3e54"/><path d="M282.83,111.8H266.41a.5.5,0,0,1-.5-.5.5.5,0,0,1,.5-.5h16.42a.5.5,0,0,1,.5.5A.5.5,0,0,1,282.83,111.8Z" fill="#231f20"/><path d="M278.47,120.2H259.18a.51.51,0,0,1-.5-.5.5.5,0,0,1,.5-.5h19.29a.5.5,0,0,1,.5.5A.5.5,0,0,1,278.47,120.2Z" fill="#3e3e54"/><path d="M267,128.6h-7.84a.5.5,0,0,1,0-1H267a.5.5,0,0,1,0,1Z" fill="#231f20"/></g></svg>